<mxfile host="app.diagrams.net" modified="2021-01-05T06:18:51.046Z" agent="5.0 (Macintosh; Intel Mac OS X 10_15_7) AppleWebKit/537.36 (KHTML, like Gecko) Chrome/87.0.4280.88 Safari/537.36" etag="XCHXC9Sjv_l8y6x-U5y5" version="14.1.8" type="github">
  <diagram id="BgvNYrPouHBMjl0CF1mE" name="Page-1">
    <mxGraphModel dx="1773" dy="614" grid="1" gridSize="10" guides="1" tooltips="1" connect="1" arrows="1" fold="1" page="1" pageScale="1" pageWidth="827" pageHeight="1169" math="0" shadow="0">
      <root>
        <mxCell id="0" />
        <mxCell id="1" parent="0" />
        <mxCell id="oHA3F_bSEuNhImgdBlkA-1" value="GestureBinding" style="swimlane;fontStyle=1;align=center;verticalAlign=top;childLayout=stackLayout;horizontal=1;startSize=30;horizontalStack=0;resizeParent=1;resizeParentMax=0;resizeLast=0;collapsible=1;marginBottom=0;fontSize=18;fillColor=#fff2cc;strokeColor=#d6b656;" parent="1" vertex="1">
          <mxGeometry x="150" y="150" width="450" height="392" as="geometry" />
        </mxCell>
        <mxCell id="oHA3F_bSEuNhImgdBlkA-3" value="" style="line;strokeWidth=1;fillColor=#fff2cc;align=left;verticalAlign=middle;spacingTop=-1;spacingLeft=3;spacingRight=3;rotatable=0;labelPosition=right;points=[];portConstraint=eastwest;strokeColor=#d6b656;" parent="oHA3F_bSEuNhImgdBlkA-1" vertex="1">
          <mxGeometry y="30" width="450" height="8" as="geometry" />
        </mxCell>
        <mxCell id="oHA3F_bSEuNhImgdBlkA-2" value="instance: GestureBinding&#xa;_pendingPointerEvents：Queue&lt;PointerEvent&gt;()&#xa;pointerRouter: PointerRouter&#xa;gestureArena: GestureArenaManager" style="text;strokeColor=#6c8ebf;fillColor=#dae8fc;align=left;verticalAlign=top;spacingLeft=4;spacingRight=4;overflow=hidden;rotatable=0;points=[[0,0.5],[1,0.5]];portConstraint=eastwest;fontSize=18;" parent="oHA3F_bSEuNhImgdBlkA-1" vertex="1">
          <mxGeometry y="38" width="450" height="102" as="geometry" />
        </mxCell>
        <mxCell id="oHA3F_bSEuNhImgdBlkA-4" value="+ initInstances()&#xa;+ unlocked()&#xa;- _handlePointerDataPacket(packet)&#xa;- _handlePointerEvent(event)&#xa;+ handleEvent(event, entry)&#xa;+ cancelPointer(pointer:int)&#xa;- _flushPointerEventQueue()&#xa;+ dispatchEvent(event, hitTestResult)&#xa;+ hitTest(HitTestResult result, Offset position)&#xa;" style="text;strokeColor=#82b366;fillColor=#d5e8d4;align=left;verticalAlign=top;spacingLeft=4;spacingRight=4;overflow=hidden;rotatable=0;points=[[0,0.5],[1,0.5]];portConstraint=eastwest;fontSize=18;" parent="oHA3F_bSEuNhImgdBlkA-1" vertex="1">
          <mxGeometry y="140" width="450" height="252" as="geometry" />
        </mxCell>
        <mxCell id="W1BIvydXNLYKmX1n9uua-2" value="PointerRouter" style="swimlane;fontStyle=1;align=center;verticalAlign=top;childLayout=stackLayout;horizontal=1;startSize=30;horizontalStack=0;resizeParent=1;resizeParentMax=0;resizeLast=0;collapsible=1;marginBottom=0;fontSize=18;fillColor=#fff2cc;strokeColor=#d6b656;" vertex="1" parent="1">
          <mxGeometry x="750" y="280" width="450" height="150" as="geometry" />
        </mxCell>
        <mxCell id="W1BIvydXNLYKmX1n9uua-3" value="" style="line;strokeWidth=1;fillColor=#fff2cc;align=left;verticalAlign=middle;spacingTop=-1;spacingLeft=3;spacingRight=3;rotatable=0;labelPosition=right;points=[];portConstraint=eastwest;strokeColor=#d6b656;" vertex="1" parent="W1BIvydXNLYKmX1n9uua-2">
          <mxGeometry y="30" width="450" height="8" as="geometry" />
        </mxCell>
        <mxCell id="W1BIvydXNLYKmX1n9uua-4" value="_routeMap: Map&lt;int, Map&lt;PointerRoute, Matrix4&gt;&gt;&#xa;" style="text;strokeColor=#6c8ebf;fillColor=#dae8fc;align=left;verticalAlign=top;spacingLeft=4;spacingRight=4;overflow=hidden;rotatable=0;points=[[0,0.5],[1,0.5]];portConstraint=eastwest;fontSize=18;" vertex="1" parent="W1BIvydXNLYKmX1n9uua-2">
          <mxGeometry y="38" width="450" height="42" as="geometry" />
        </mxCell>
        <mxCell id="W1BIvydXNLYKmX1n9uua-5" value="+ addRoute()&#xa;+ removeRoute()" style="text;strokeColor=#82b366;fillColor=#d5e8d4;align=left;verticalAlign=top;spacingLeft=4;spacingRight=4;overflow=hidden;rotatable=0;points=[[0,0.5],[1,0.5]];portConstraint=eastwest;fontSize=18;" vertex="1" parent="W1BIvydXNLYKmX1n9uua-2">
          <mxGeometry y="80" width="450" height="70" as="geometry" />
        </mxCell>
        <mxCell id="W1BIvydXNLYKmX1n9uua-10" value="" style="endArrow=diamondThin;endFill=0;endSize=24;html=1;" edge="1" parent="1">
          <mxGeometry width="160" relative="1" as="geometry">
            <mxPoint x="750" y="370" as="sourcePoint" />
            <mxPoint x="600" y="370" as="targetPoint" />
          </mxGeometry>
        </mxCell>
        <mxCell id="W1BIvydXNLYKmX1n9uua-11" value="GestureArenaManager" style="swimlane;fontStyle=1;align=center;verticalAlign=top;childLayout=stackLayout;horizontal=1;startSize=30;horizontalStack=0;resizeParent=1;resizeParentMax=0;resizeLast=0;collapsible=1;marginBottom=0;fontSize=18;fillColor=#fff2cc;strokeColor=#d6b656;" vertex="1" parent="1">
          <mxGeometry x="-440" y="250" width="450" height="210" as="geometry" />
        </mxCell>
        <mxCell id="W1BIvydXNLYKmX1n9uua-12" value="" style="line;strokeWidth=1;fillColor=#fff2cc;align=left;verticalAlign=middle;spacingTop=-1;spacingLeft=3;spacingRight=3;rotatable=0;labelPosition=right;points=[];portConstraint=eastwest;strokeColor=#d6b656;" vertex="1" parent="W1BIvydXNLYKmX1n9uua-11">
          <mxGeometry y="30" width="450" height="8" as="geometry" />
        </mxCell>
        <mxCell id="W1BIvydXNLYKmX1n9uua-13" value="_arenas: Map&lt;int, _GestureArena&gt;" style="text;strokeColor=#6c8ebf;fillColor=#dae8fc;align=left;verticalAlign=top;spacingLeft=4;spacingRight=4;overflow=hidden;rotatable=0;points=[[0,0.5],[1,0.5]];portConstraint=eastwest;fontSize=18;" vertex="1" parent="W1BIvydXNLYKmX1n9uua-11">
          <mxGeometry y="38" width="450" height="42" as="geometry" />
        </mxCell>
        <mxCell id="W1BIvydXNLYKmX1n9uua-14" value="+ add()&#xa;+ close()&#xa;+ sweep()&#xa;+ hold()&#xa;+ release()" style="text;strokeColor=#82b366;fillColor=#d5e8d4;align=left;verticalAlign=top;spacingLeft=4;spacingRight=4;overflow=hidden;rotatable=0;points=[[0,0.5],[1,0.5]];portConstraint=eastwest;fontSize=18;" vertex="1" parent="W1BIvydXNLYKmX1n9uua-11">
          <mxGeometry y="80" width="450" height="130" as="geometry" />
        </mxCell>
        <mxCell id="W1BIvydXNLYKmX1n9uua-15" value="" style="endArrow=diamondThin;endFill=0;endSize=24;html=1;" edge="1" parent="1">
          <mxGeometry width="160" relative="1" as="geometry">
            <mxPoint x="10" y="354.5" as="sourcePoint" />
            <mxPoint x="150" y="355" as="targetPoint" />
          </mxGeometry>
        </mxCell>
      </root>
    </mxGraphModel>
  </diagram>
</mxfile>
